<?xml version="1.0" encoding="utf-8"?>
<!-- Generator: Adobe Illustrator 16.0.0, SVG Export Plug-In . SVG Version: 6.00 Build 0)  -->
<!DOCTYPE svg PUBLIC "-//W3C//DTD SVG 1.1//EN" "http://www.w3.org/Graphics/SVG/1.1/DTD/svg11.dtd">
<svg version="1.1" id="图层_1" xmlns="http://www.w3.org/2000/svg" xmlns:xlink="http://www.w3.org/1999/xlink" x="0px" y="0px"
	 width="30px" height="30px" viewBox="0 0 30 30" enable-background="new 0 0 30 30" xml:space="preserve">
<g>
	<g>
		<g>
			<g>
				<path fill-rule="evenodd" clip-rule="evenodd" fill="#FFFFFF" d="M18.042,12.567H4.609c-0.621,0-1.121,0.501-1.121,1.119v11.194
					C3.488,25.5,3.988,26,4.609,26h13.433c0.614,0,1.118-0.5,1.118-1.119V13.687C19.16,13.068,18.656,12.567,18.042,12.567z
					 M8.843,13.412c0.307,0,0.556,0.246,0.556,0.557s-0.249,0.557-0.556,0.557c-0.309,0-0.563-0.246-0.563-0.557
					S8.534,13.412,8.843,13.412z M7.127,13.412c0.309,0,0.561,0.246,0.561,0.557s-0.251,0.557-0.561,0.557
					c-0.31,0-0.561-0.246-0.561-0.557S6.817,13.412,7.127,13.412z M5.445,13.412c0.313,0,0.562,0.246,0.562,0.557
					s-0.249,0.557-0.562,0.557c-0.306,0-0.557-0.246-0.557-0.557S5.139,13.412,5.445,13.412z M18.042,24.881H4.609v-9.502h13.433
					V24.881z M18.042,14.26h-7.835v-0.562h7.835V14.26z"/>
			</g>
		</g>
	</g>
	<g>
		<g>
			<path fill-rule="evenodd" clip-rule="evenodd" fill="#FFFFFF" d="M21.708,7.57H8.279c-0.62,0-1.121,0.502-1.121,1.119v3.245
				h1.121v-1.553h13.429v9.504H19.76v1.119h1.948c0.617,0,1.119-0.502,1.119-1.119V8.688C22.827,8.072,22.325,7.57,21.708,7.57z
				 M9.117,9.531c-0.31,0-0.56-0.25-0.56-0.561s0.25-0.557,0.56-0.557c0.308,0,0.56,0.246,0.56,0.557S9.425,9.531,9.117,9.531z
				 M10.797,9.531c-0.313,0-0.562-0.25-0.562-0.561s0.25-0.557,0.562-0.557c0.306,0,0.559,0.246,0.559,0.557
				S11.103,9.531,10.797,9.531z M12.509,9.531c-0.309,0-0.561-0.25-0.561-0.561s0.251-0.557,0.561-0.557
				c0.309,0,0.559,0.246,0.559,0.557S12.818,9.531,12.509,9.531z M21.708,9.261h-7.834V8.702h7.834V9.261z"/>
		</g>
	</g>
	<g>
		<g>
			<path fill-rule="evenodd" clip-rule="evenodd" fill="#FFFFFF" d="M25.875,2.819h-13.43c-0.621,0-1.12,0.501-1.12,1.117V7.18h1.12
				V5.629h13.43v9.504h-1.949v1.116h1.949c0.619,0,1.121-0.5,1.121-1.116V3.937C26.996,3.32,26.494,2.819,25.875,2.819z
				 M13.284,4.779c-0.309,0-0.559-0.251-0.559-0.559c0-0.309,0.25-0.56,0.559-0.56c0.31,0,0.559,0.251,0.559,0.56
				C13.843,4.527,13.593,4.779,13.284,4.779z M14.962,4.779c-0.309,0-0.559-0.251-0.559-0.559c0-0.309,0.25-0.56,0.559-0.56
				s0.562,0.251,0.562,0.56C15.523,4.527,15.271,4.779,14.962,4.779z M16.676,4.779c-0.309,0-0.559-0.251-0.559-0.559
				c0-0.309,0.25-0.56,0.559-0.56c0.31,0,0.559,0.251,0.559,0.56C17.234,4.527,16.985,4.779,16.676,4.779z M25.875,4.51h-7.833
				V3.952h7.833V4.51z"/>
		</g>
	</g>
</g>
</svg>
