<?xml version="1.0" encoding="utf-8"?>
<!-- Generator: Adobe Illustrator 16.0.0, SVG Export Plug-In . SVG Version: 6.00 Build 0)  -->
<!DOCTYPE svg PUBLIC "-//W3C//DTD SVG 1.1//EN" "http://www.w3.org/Graphics/SVG/1.1/DTD/svg11.dtd">
<svg version="1.1" id="图层_1" xmlns="http://www.w3.org/2000/svg" xmlns:xlink="http://www.w3.org/1999/xlink" x="0px" y="0px"
	 width="30px" height="30px" viewBox="0 0 30 30" enable-background="new 0 0 30 30" xml:space="preserve">
<g>
	<path fill="#FFFFFF" d="M14.279,7.619c-0.372,0-0.671,0.302-0.671,0.671v5.93c-0.334,0.219-0.556,0.596-0.556,1.024
		c0,0.678,0.549,1.231,1.228,1.231c0.431,0,0.807-0.225,1.026-0.558h6.469c0.369,0,0.672-0.3,0.672-0.673
		c0-0.369-0.303-0.669-0.672-0.669h-6.469c-0.095-0.142-0.212-0.264-0.355-0.355v-5.93C14.95,7.921,14.649,7.619,14.279,7.619z"/>
	<path fill="#FFFFFF" d="M15.438,2.051c-6.654,0-12.096,5.217-12.486,11.774H1.625l2.554,4.424l2.554-4.424H5.512
		c0.385-5.145,4.684-9.212,9.926-9.212c5.493,0,9.961,4.467,9.961,9.962c0,5.493-4.469,9.962-9.961,9.962
		c-1.904,0-3.754-0.539-5.349-1.558c-1.167-0.744-2.147-1.7-2.92-2.846l-2.125,1.432c0.97,1.44,2.205,2.642,3.667,3.572
		c2.008,1.282,4.334,1.962,6.728,1.962c6.905,0,12.524-5.619,12.524-12.524C27.962,7.668,22.343,2.051,15.438,2.051z"/>
</g>
</svg>
