<?xml version="1.0" encoding="utf-8"?>
<!-- Generator: Adobe Illustrator 16.0.0, SVG Export Plug-In . SVG Version: 6.00 Build 0)  -->
<!DOCTYPE svg PUBLIC "-//W3C//DTD SVG 1.1//EN" "http://www.w3.org/Graphics/SVG/1.1/DTD/svg11.dtd">
<svg version="1.1" id="图层_1" xmlns="http://www.w3.org/2000/svg" xmlns:xlink="http://www.w3.org/1999/xlink" x="0px" y="0px"
	 width="30px" height="30px" viewBox="0 0 30 30" enable-background="new 0 0 30 30" xml:space="preserve">
<g>
	<g>
		<g>
			<rect x="3.028" y="18.847" fill="#FFFFFF" width="23.928" height="1.871"/>
		</g>
	</g>
	<g>
		<g>
			<rect x="4.7" y="20.718" fill="#FFFFFF" width="3.408" height="3.075"/>
		</g>
	</g>
	<g>
		<g>
			<rect x="21.877" y="20.718" fill="#FFFFFF" width="3.407" height="3.075"/>
		</g>
	</g>
	<g>
		<g>
			<rect x="12.812" y="4.871" fill="#FFFFFF" width="4.019" height="0.803"/>
		</g>
	</g>
	<g>
		<g>
			<path fill="#FFFFFF" d="M25.528,10.804l-1.03-8.083H5.489l-1.031,8.083H3.204v7.351h23.582v-7.351H25.528z M7.529,4.175h14.929
				l0.917,6.831H6.608L7.529,4.175z M8.256,16.241H5.958c-0.823,0-1.492-0.669-1.492-1.494c0-0.825,0.669-1.493,1.492-1.493h2.298
				c0.822,0,1.492,0.668,1.492,1.493C9.748,15.572,9.078,16.241,8.256,16.241z M23.654,16.096h-2.297
				c-0.825,0-1.494-0.668-1.494-1.492c0-0.825,0.669-1.493,1.494-1.493h2.297c0.825,0,1.492,0.668,1.492,1.493
				C25.146,15.428,24.479,16.096,23.654,16.096z"/>
		</g>
	</g>
	<g>
		<g>
			<path fill="#FFFFFF" d="M8.357,14.765c0,0.39-0.316,0.708-0.707,0.708H6.563c-0.39,0-0.707-0.317-0.707-0.708l0,0
				c0-0.39,0.317-0.707,0.707-0.707H7.65C8.041,14.059,8.357,14.375,8.357,14.765L8.357,14.765z"/>
		</g>
	</g>
	<g>
		<g>
			<path fill="#FFFFFF" d="M23.774,14.593c0,0.391-0.315,0.708-0.707,0.708h-1.085c-0.392,0-0.707-0.317-0.707-0.708l0,0
				c0-0.39,0.315-0.707,0.707-0.707h1.085C23.459,13.886,23.774,14.203,23.774,14.593L23.774,14.593z"/>
		</g>
	</g>
	<g>
		<g>
			<rect x="26.514" y="9.081" fill="#FFFFFF" width="3.486" height="1.953"/>
		</g>
	</g>
	<g>
		<g>
			<rect x="0.254" y="9.081" fill="#FFFFFF" width="3.485" height="1.953"/>
		</g>
	</g>
</g>
</svg>
