<?xml version="1.0" encoding="utf-8"?>
<!-- Generator: Adobe Illustrator 16.0.0, SVG Export Plug-In . SVG Version: 6.00 Build 0)  -->
<!DOCTYPE svg PUBLIC "-//W3C//DTD SVG 1.1//EN" "http://www.w3.org/Graphics/SVG/1.1/DTD/svg11.dtd">
<svg version="1.1" id="图层_1" xmlns="http://www.w3.org/2000/svg" xmlns:xlink="http://www.w3.org/1999/xlink" x="0px" y="0px"
	 width="30px" height="30px" viewBox="0 0 30 30" enable-background="new 0 0 30 30" xml:space="preserve">
<g>
	<g>
		<path fill="#FFFFFF" d="M11.027,8.489L5.828,9.018c0,0-2.449,0.108-2.449,2.473v3.257c0,0-0.053,2.731,2.344,2.733
			c0,0,2.955-0.004,2.955,0.994l-0.005,5.891c0,0-0.147,0.943,0.798,0.943c0,0,2.766,0.432,1.398-2.4
			c1.037-1.064,0.118-2.16,0.118-2.16s0.934-0.895,0.035-2.113c0,0,0.8-1.107,0.8-1.734l0.052-7.517
			C11.875,9.383,12.028,8.491,11.027,8.489z M6.035,14.842c0,0.392-0.319,0.712-0.714,0.712c-0.392,0-0.711-0.32-0.711-0.712
			l0.004-3.431c0.001-0.393,0.317-0.71,0.712-0.71c0.393,0.002,0.712,0.319,0.712,0.713L6.035,14.842z"/>
	</g>
	<g>
		<path fill="#FFFFFF" d="M25.201,10.039l0.005-6.868c0-0.898-0.763,0.099-0.763,0.099c-3.602,5.588-11.029,5.136-11.029,5.136
			c-0.879,0-0.739,0.746-0.739,0.746l-0.002,6.488c0,0.748,0.782,0.75,0.782,0.75c8.305,0.004,11.13,5.256,11.13,5.256
			s0.655,0.814,0.609-0.033l0.005-6.859c0.838-0.451,1.42-1.329,1.42-2.355C26.621,11.371,26.042,10.494,25.201,10.039z"/>
	</g>
</g>
</svg>
